<?xml version="1.0" encoding="UTF-8"?>
<!-- by 01micko, converted to fills with https://iconly.io/tools/svg-convert-stroke-to-fill -->
<svg xmlns="http://www.w3.org/2000/svg" width="256px" height="256px" viewBox="0 0 256 256" 
stroke-linecap="round" stroke-linejoin="round" stroke-width="12">
<path d="M24.167 62.305 C 21.891 62.987,20.058 65.394,20.048 67.712 C 20.046 68.369,23.422 91.947,27.551 120.107 C 32.556 154.242,35.295 171.770,35.769 172.698 C 36.703 174.526,113.476 236.211,115.519 236.775 C 117.975 237.453,121.059 236.097,122.236 233.821 C 122.815 232.702,122.877 226.151,122.778 176.447 L 122.667 120.336 121.387 119.090 C 120.104 117.841,31.585 64.148,28.373 62.670 C 26.499 61.808,25.977 61.763,24.167 62.305 M227.413 62.266 C 225.859 62.753,135.255 117.574,133.876 118.862 C 133.235 119.460,132.513 120.685,132.271 121.584 C 131.976 122.679,131.867 141.350,131.942 178.059 C 132.053 232.694,132.057 232.902,132.933 234.076 C 134.441 236.095,135.827 236.871,137.924 236.871 C 138.994 236.871,140.223 236.673,140.655 236.432 C 142.359 235.477,218.235 174.224,218.984 173.197 C 219.630 172.313,221.276 161.963,227.507 119.594 L 235.229 67.087 234.373 65.437 C 233.078 62.942,229.890 61.489,227.413 62.266 M72.640 103.235 L 110.933 126.366 110.933 172.410 L 110.933 218.454 88.000 200.038 C 75.387 189.909,60.891 178.273,55.787 174.180 C 50.683 170.087,46.507 166.583,46.507 166.394 C 46.507 165.788,34.146 81.747,33.905 80.711 C 33.777 80.163,33.824 79.803,34.010 79.910 C 34.195 80.017,51.579 90.514,72.640 103.235 " fill="black" stroke="none" fill-rule="evenodd"></path>
</svg>
