<?xml version="1.0" encoding="UTF-8"?>
<svg xmlns="http://www.w3.org/2000/svg" version="1.1" viewBox="0 0 120 160">
  <!--labwc logo
  (c) Michael Amadio, 01micko@gmail.com, Labrador, QLD, Australia
  LICENSE: CC BY-SA 4.0-->
  <path d="m 80,29.5 a 0.5 0.5 0 0 1 -0.5,0.5 l -30,0 -30,-20  c -5,-3.5 -7,-2 -7,4   l 0,60  
            c 0,6 1,7.5 7,4 l 30,-20 30,0
            a 0.5 0.5 0 0 1 0.5,0.5 l 5,0 a 5.5 5.5 0 0 0 -5.5,-5.5 
            l -62,0 0,-38 30,20 32,0 a 5.5 5.5 0 0 0 5.5,-5.5 z" style="fill:#000000"/>
  <path d="m 77.5 80 -5,0 0,60  a 12.5,12.5 0 0 0 25,0 l 0,-60 -5,0 0,40 -15,0 z" style="fill:#000000"/>
  <path d="m 85,58 a 10 10 0 0 1 -3,7 a 5 5 1 1 0 6,0 a 10 10 0 0 1 -3,-7" style="fill:#000000;stroke-linejoin:round"  />
</svg>