<?xml version="1.0" encoding="UTF-8" standalone="no"?>
<!-- Created with Inkscape (http://www.inkscape.org/) -->

<svg
   width="26"
   height="26"
   viewBox="0 0 6.8791667 6.8791667"
   version="1.1"
   id="svg1"
   xml:space="preserve"
   inkscape:version="1.3.2 (091e20ef0f, 2023-11-25)"
   sodipodi:docname="close_hover-inactive.svg"
   xmlns:inkscape="http://www.inkscape.org/namespaces/inkscape"
   xmlns:sodipodi="http://sodipodi.sourceforge.net/DTD/sodipodi-0.dtd"
   xmlns="http://www.w3.org/2000/svg"
   xmlns:svg="http://www.w3.org/2000/svg"><sodipodi:namedview
     id="namedview1"
     pagecolor="#ffffff"
     bordercolor="#000000"
     borderopacity="0.25"
     inkscape:showpageshadow="2"
     inkscape:pageopacity="0.0"
     inkscape:pagecheckerboard="0"
     inkscape:deskcolor="#d1d1d1"
     inkscape:document-units="mm"
     inkscape:zoom="16.947587"
     inkscape:cx="21.714006"
     inkscape:cy="17.111581"
     inkscape:window-width="1885"
     inkscape:window-height="1220"
     inkscape:window-x="0"
     inkscape:window-y="0"
     inkscape:window-maximized="0"
     inkscape:current-layer="layer1"
     showgrid="true"><inkscape:grid
       id="grid1"
       units="px"
       originx="0"
       originy="0"
       spacingx="0.26458334"
       spacingy="0.26458334"
       empcolor="#0099e5"
       empopacity="0.30196078"
       color="#0099e5"
       opacity="0.14901961"
       empspacing="5"
       dotted="false"
       gridanglex="30"
       gridanglez="30"
       visible="true" /></sodipodi:namedview><defs
     id="defs1" /><g
     inkscape:label="Layer 1"
     inkscape:groupmode="layer"
     id="layer1"><circle
       style="fill:#303030;fill-opacity:1;stroke:none;stroke-width:0.529165;stroke-linecap:square;stroke-dasharray:none;stroke-opacity:1"
       id="circle2"
       cx="3.4395833"
       cy="3.4395833"
       r="3.4395833" /><circle
       style="fill:#2f2f2f;fill-opacity:1;stroke:none;stroke-width:0.529167;stroke-linecap:square;stroke-dasharray:none;stroke-opacity:1"
       id="circle1"
       cx="3.4395833"
       cy="3.4395833"
       r="2.9104166" /><path
       d="m 2.3821802,2.38125 h 0.2645834 0.00827 c 0.067179,0.0031 0.1353923,0.034106 0.181901,0.082682 l 0.603579,0.6035811 0.6118489,-0.6035808 c 0.07028,-0.060978 0.1178222,-0.080615 0.1819011,-0.082682 h 0.2645833 v 0.2645834 c 0,0.075448 -0.0093,0.1457274 -0.066146,0.1984375 l -0.6035806,0.60358 0.5953125,0.595313 c 0.049609,0.04961 0.074414,0.119889 0.074414,0.190169 v 0.264583 H 4.2342636 c -0.07028,0 -0.1405599,-0.02481 -0.1901693,-0.07441 l -0.6035807,-0.60358 -0.6035808,0.60358 c -0.049609,0.04961 -0.1198893,0.07441 -0.1901692,0.07441 H 2.3821802 v -0.264583 c 0,-0.07028 0.024805,-0.14056 0.074414,-0.190169 L 3.060175,3.4478512 2.4565943,2.8442709 C 2.4007836,2.7925946 2.3759789,2.7202474 2.3821802,2.6458334 Z m 0,0"
       fill="#2e3436"
       id="path1"
       style="fill:#8e8e8e;fill-opacity:1;stroke-width:0.264583" /></g></svg>
