<?xml version="1.0" encoding="UTF-8" standalone="no"?>
<!-- Created with Inkscape (http://www.inkscape.org/) -->

<svg
   width="26"
   height="26"
   viewBox="0 0 6.8791667 6.8791667"
   version="1.1"
   id="svg1"
   xml:space="preserve"
   inkscape:version="1.3.2 (091e20ef0f, 2023-11-25)"
   sodipodi:docname="close_hover-active.svg"
   xmlns:inkscape="http://www.inkscape.org/namespaces/inkscape"
   xmlns:sodipodi="http://sodipodi.sourceforge.net/DTD/sodipodi-0.dtd"
   xmlns="http://www.w3.org/2000/svg"
   xmlns:svg="http://www.w3.org/2000/svg"><sodipodi:namedview
     id="namedview1"
     pagecolor="#ffffff"
     bordercolor="#000000"
     borderopacity="0.25"
     inkscape:showpageshadow="2"
     inkscape:pageopacity="0.0"
     inkscape:pagecheckerboard="0"
     inkscape:deskcolor="#d1d1d1"
     inkscape:document-units="mm"
     inkscape:zoom="5.9918769"
     inkscape:cx="-3.5047449"
     inkscape:cy="60.748912"
     inkscape:window-width="1416"
     inkscape:window-height="1220"
     inkscape:window-x="0"
     inkscape:window-y="0"
     inkscape:window-maximized="0"
     inkscape:current-layer="layer1"
     showgrid="true"><inkscape:grid
       id="grid1"
       units="px"
       originx="0"
       originy="0"
       spacingx="0.26458334"
       spacingy="0.26458334"
       empcolor="#0099e5"
       empopacity="0.30196078"
       color="#0099e5"
       opacity="0.14901961"
       empspacing="5"
       dotted="false"
       gridanglex="30"
       gridanglez="30"
       visible="true" /></sodipodi:namedview><defs
     id="defs1" /><g
     inkscape:label="Layer 1"
     inkscape:groupmode="layer"
     id="layer1"><circle
       style="fill:#303030;fill-opacity:1;stroke:none;stroke-width:0.529165;stroke-linecap:square;stroke-dasharray:none;stroke-opacity:1"
       id="circle2"
       cx="3.4395833"
       cy="3.4395833"
       r="3.4395833" /><circle
       style="fill:#4f4f4f;fill-opacity:1;stroke:none;stroke-width:0.529167;stroke-linecap:square;stroke-dasharray:none;stroke-opacity:1"
       id="circle1"
       cx="3.4395833"
       cy="3.4395833"
       r="2.9104166" /><path
       d="m 2.38218,2.38125 h 0.2645834 0.00827 c 0.067179,0.0031 0.1353923,0.03411 0.181901,0.08268 L 3.440513,3.067511 4.052362,2.46393 C 4.122642,2.40295 4.170185,2.38332 4.234263,2.38125 h 0.264584 v 0.264584 c 0,0.07545 -0.0093,0.145727 -0.06615,0.198437 L 3.829116,3.447852 4.424429,4.043164 c 0.04961,0.04961 0.07441,0.11989 0.07441,0.19017 V 4.497917 H 4.234255 c -0.07028,0 -0.140559,-0.02481 -0.190169,-0.07441 L 3.440505,3.819926 2.8369246,4.423507 c -0.049609,0.04961 -0.1198893,0.07441 -0.1901692,0.07441 H 2.38218 V 4.233334 c 0,-0.07028 0.024805,-0.14056 0.074414,-0.19017 L 3.0601748,3.447852 2.4565941,2.844271 C 2.4007831,2.792591 2.3759791,2.720248 2.3821801,2.645834 Z m 0,0"
       fill="#2e3436"
       id="path1"
       style="stroke-width:0.264583;fill:#f8f8f8;fill-opacity:1" /></g></svg>
