<?xml version="1.0" encoding="UTF-8" standalone="no"?>
<!-- Created with Inkscape (http://www.inkscape.org/) -->

<svg
   width="26"
   height="26"
   viewBox="0 0 6.8791667 6.8791667"
   version="1.1"
   id="svg1"
   xml:space="preserve"
   inkscape:version="1.3.2 (091e20ef0f, 2023-11-25)"
   sodipodi:docname="max-active.svg"
   xmlns:inkscape="http://www.inkscape.org/namespaces/inkscape"
   xmlns:sodipodi="http://sodipodi.sourceforge.net/DTD/sodipodi-0.dtd"
   xmlns="http://www.w3.org/2000/svg"
   xmlns:svg="http://www.w3.org/2000/svg"><sodipodi:namedview
     id="namedview1"
     pagecolor="#ffffff"
     bordercolor="#000000"
     borderopacity="0.25"
     inkscape:showpageshadow="2"
     inkscape:pageopacity="0.0"
     inkscape:pagecheckerboard="0"
     inkscape:deskcolor="#d1d1d1"
     inkscape:document-units="mm"
     inkscape:zoom="23.967508"
     inkscape:cx="1.1056636"
     inkscape:cy="10.827158"
     inkscape:window-width="1471"
     inkscape:window-height="1247"
     inkscape:window-x="0"
     inkscape:window-y="0"
     inkscape:window-maximized="0"
     inkscape:current-layer="layer1"
     showgrid="true"><inkscape:grid
       id="grid1"
       units="px"
       originx="0"
       originy="0"
       spacingx="0.26458334"
       spacingy="0.26458334"
       empcolor="#0099e5"
       empopacity="0.30196078"
       color="#0099e5"
       opacity="0.14901961"
       empspacing="5"
       dotted="false"
       gridanglex="30"
       gridanglez="30"
       visible="true" /></sodipodi:namedview><defs
     id="defs1" /><g
     inkscape:label="Layer 1"
     inkscape:groupmode="layer"
     id="layer1"><circle
       style="fill:#303030;fill-opacity:1;stroke:none;stroke-width:0.529165;stroke-linecap:square;stroke-dasharray:none;stroke-opacity:1"
       id="circle2"
       cx="3.4395833"
       cy="3.4395833"
       r="3.4395833" /><circle
       style="fill:#454545;fill-opacity:1;stroke:none;stroke-width:0.529167;stroke-linecap:square;stroke-dasharray:none;stroke-opacity:1"
       id="circle1"
       cx="3.4395833"
       cy="3.4395833"
       r="2.9104166" /><rect
       style="fill:#8e8e8e;stroke:#949494;stroke-width:0.264583;stroke-linecap:round;stroke-linejoin:round"
       id="rect1"
       width="30.820248"
       height="45.241703"
       x="-37.365032"
       y="2.3998353" /><rect
       style="fill:#e2e2e2;fill-opacity:1;stroke:#f8f8f8;stroke-width:0.264583;stroke-linecap:round;stroke-linejoin:round;stroke-dasharray:none;stroke-opacity:1"
       id="rect2"
       width="1.8578175"
       x="-17.842108"
       y="-7.1782198"
       height="3.4173331e-07"
       transform="scale(1,-1)" /><path
       id="path857"
       style="color:#000000;fill:#f8f8f8;fill-opacity:1;stroke-width:0.264583;stroke-linecap:round;stroke-linejoin:round;-inkscape-stroke:none"
       d="m -9.1599158,3.6689844 a 0.15119371,0.15119208 0 0 0 -0.1068987,0.044295 0.15119371,0.15119208 0 0 0 0,0.213795 l 0.8002636,0.800255 -0.8002636,0.8002549 a 0.15119371,0.15119208 0 0 0 0,0.2137953 0.15119371,0.15119208 0 0 0 0.2137974,0 l 0.8002636,-0.8002556 0.8002636,0.8002552 a 0.15119371,0.15119208 0 0 0 0.2137976,0 0.15119371,0.15119208 0 0 0 0,-0.2137953 L -8.0389562,4.727329 -7.2386923,3.927074 a 0.15119371,0.15119208 0 0 0 0,-0.213795 0.15119371,0.15119208 0 0 0 -0.2137976,0 L -8.2527535,4.5135339 -9.0530171,3.713279 a 0.15119371,0.15119208 0 0 0 -0.1068987,-0.044295 z" /><path
       d="M 2.38125,2.38125 V 4.5010171 H 4.5010173 V 2.38125 Z m 0.5291666,0.5291667 h 1.061434 v 1.0614337 h -1.061434 z m 0,0"
       fill="#2e3436"
       id="path1"
       style="fill:#f8f8f8;fill-opacity:1;stroke-width:0.264583" /></g></svg>
