<?xml version="1.0" encoding="utf-8"?>
<svg width="26" height="26" viewBox="0 0 6.8791667 6.8791667" version="1.1" id="svg1" xmlns="http://www.w3.org/2000/svg">
  <defs id="defs1"/>
  <g id="layer1">
    <circle style="fill:#2e2e2e;fill-opacity:1;stroke:none;stroke-width:0.529165;stroke-linecap:square;stroke-dasharray:none;stroke-opacity:1" id="circle2" cx="3.4395833" cy="3.4395833" r="3.4395833"/>
    <path style="fill:#8e8e8e" d="M 2.503 2.19 C 2.33 2.19 2.19 2.33 2.19 2.502 C 2.19 2.585 2.223 2.665 2.28 2.723 L 2.999 3.44 L 2.28 4.155 C 2.223 4.213 2.19 4.293 2.19 4.377 C 2.19 4.55 2.33 4.69 2.503 4.69 C 2.585 4.69 2.665 4.657 2.724 4.598 L 3.44 3.88 L 4.152 4.596 C 4.212 4.656 4.292 4.69 4.377 4.69 C 4.55 4.69 4.69 4.55 4.69 4.377 C 4.69 4.293 4.657 4.213 4.599 4.155 L 3.88 3.44 L 4.597 2.727 C 4.657 2.667 4.69 2.586 4.69 2.502 C 4.69 2.33 4.55 2.19 4.377 2.19 C 4.295 2.188 4.215 2.221 4.155 2.28 L 3.44 2.998 L 2.727 2.283 C 2.727 2.282 2.725 2.281 2.724 2.28 C 2.665 2.221 2.585 2.188 2.503 2.19 Z"/>
  </g>
</svg>