<?xml version="1.0" encoding="utf-8"?>
<svg width="26" height="26" viewBox="0 0 6.8791667 6.8791667" version="1.1" id="svg1" xmlns="http://www.w3.org/2000/svg">
  <defs id="defs1"/>
  <g id="layer1">
    <circle style="fill:#444444;fill-opacity:1;stroke:none;stroke-width:0.529165;stroke-linecap:square;stroke-dasharray:none;stroke-opacity:1" id="circle2" cx="3.4395833" cy="3.4395833" r="3.4395833"/>
    <path style="fill:#ffffff" d="M 3.128 2.19 C 3.128 2.19 3.128 2.815 3.753 2.815 L 3.909 2.815 C 3.995 2.815 4.065 2.885 4.065 2.971 L 4.065 3.127 C 4.065 3.752 4.69 3.752 4.69 3.752 L 4.69 2.502 C 4.69 2.329 4.55 2.19 4.378 2.19 L 3.128 2.19 Z M 2.19 3.127 L 2.19 4.377 C 2.19 4.55 2.329 4.69 2.503 4.69 L 3.753 4.69 C 3.753 4.69 3.753 4.065 3.128 4.065 L 2.971 4.065 C 2.885 4.065 2.815 3.995 2.815 3.909 L 2.815 3.752 C 2.805 3.17 2.19 3.127 2.19 3.127 Z"/>
  </g>
</svg>