<?xml version="1.0" encoding="utf-8"?>
<svg width="26" height="26" viewBox="0 0 6.8791667 6.8791667" version="1.1" id="svg1" xmlns="http://www.w3.org/2000/svg">
  <defs id="defs1"/>
  <g id="layer1">
    <circle style="fill:#4f4f4f;fill-opacity:1;stroke:none;stroke-width:0.529165;stroke-linecap:square;stroke-dasharray:none;stroke-opacity:1" id="circle2" cx="3.4395833" cy="3.4395833" r="3.4395833"/>
    <path style="fill:#ffffff" shape-rendering="crispEdges" d="M 2.502 2.19 C 2.33 2.19 2.19 2.329 2.19 2.502 L 2.19 4.377 C 2.19 4.551 2.33 4.69 2.502 4.69 L 4.377 4.69 C 4.55 4.69 4.69 4.551 4.69 4.377 L 4.69 2.502 C 4.69 2.329 4.55 2.19 4.377 2.19 L 2.502 2.19 Z M 2.971 3.127 L 3.909 3.127 C 3.995 3.127 4.065 3.197 4.065 3.284 L 4.065 3.909 C 4.065 3.995 3.995 4.065 3.909 4.065 L 2.971 4.065 C 2.885 4.065 2.815 3.995 2.815 3.909 L 2.815 3.284 C 2.815 3.197 2.885 3.127 2.971 3.127 Z"/>
  </g>
</svg>