<?xml version="1.0" encoding="utf-8"?>
<svg width="26" height="26" viewBox="0 0 6.8791667 6.8791667" version="1.1" id="svg1" xmlns="http://www.w3.org/2000/svg">
  <defs id="defs1"/>
  <g id="layer1">
    <circle style="fill:#2e2e2e;fill-opacity:1;stroke:none;stroke-width:0.529165;stroke-linecap:square;stroke-dasharray:none;stroke-opacity:1" id="circle2" cx="3.4395833" cy="3.4395833" r="3.4395833"/>
    <path style="fill:#8e8e8e" d="M 2.69 2.44 C 2.552 2.44 2.44 2.552 2.44 2.69 C 2.44 2.756 2.466 2.82 2.512 2.867 L 3.087 3.44 L 2.512 4.012 C 2.466 4.059 2.44 4.123 2.44 4.19 C 2.44 4.328 2.552 4.44 2.69 4.44 C 2.756 4.44 2.82 4.414 2.867 4.367 L 3.44 3.792 L 4.01 4.365 C 4.057 4.413 4.122 4.44 4.19 4.44 C 4.328 4.44 4.44 4.328 4.44 4.19 C 4.44 4.123 4.414 4.059 4.367 4.012 L 3.792 3.44 L 4.365 2.87 C 4.413 2.822 4.44 2.757 4.44 2.69 C 4.44 2.552 4.328 2.44 4.19 2.44 C 4.124 2.439 4.06 2.465 4.012 2.512 L 3.44 3.087 L 2.87 2.515 C 2.869 2.514 2.868 2.513 2.867 2.512 C 2.82 2.465 2.756 2.439 2.69 2.44 Z"/>
  </g>
</svg>