<?xml version="1.0" encoding="utf-8"?>
<svg width="26" height="26" viewBox="0 0 6.8791667 6.8791667" version="1.1" id="svg1" xmlns="http://www.w3.org/2000/svg">
  <defs id="defs1"/>
  <g id="layer1">
    <path style="fill:#ffffff" d="M 3.538 1.965 L 3.533 1.971 C 3.458 2.046 3.416 2.145 3.415 2.25 C 3.414 2.349 3.45 2.441 3.514 2.514 L 2.889 3.139 C 2.816 3.075 2.724 3.04 2.625 3.04 C 2.52 3.042 2.421 3.083 2.346 3.158 L 2.34 3.163 C 2.307 3.196 2.307 3.249 2.34 3.282 L 2.824 3.768 L 2.013 4.578 L 1.94 4.94 L 2.301 4.866 L 3.112 4.056 L 3.597 4.54 C 3.615 4.557 3.636 4.566 3.657 4.565 C 3.678 4.564 3.699 4.557 3.717 4.539 L 3.722 4.534 C 3.797 4.459 3.838 4.359 3.84 4.254 C 3.84 4.156 3.804 4.064 3.741 3.991 L 4.366 3.366 C 4.439 3.429 4.531 3.465 4.629 3.465 C 4.734 3.463 4.834 3.422 4.909 3.347 L 4.914 3.342 C 4.932 3.324 4.939 3.303 4.94 3.282 C 4.941 3.261 4.932 3.24 4.915 3.222 L 3.657 1.965 C 3.64 1.947 3.619 1.94 3.597 1.94 C 3.576 1.94 3.555 1.948 3.538 1.965 Z"/>
  </g>
</svg>