<?xml version="1.0" encoding="utf-8"?>
<svg width="26" height="26" viewBox="0 0 6.8791667 6.8791667" version="1.1" id="svg1" xmlns="http://www.w3.org/2000/svg">
  <defs id="defs1"/>
  <g id="layer1">
    <path style="fill:#ffffff" d="M 2.015 1.94 L 3.065 1.94 C 3.106 1.94 3.14 1.975 3.14 2.015 L 3.14 3.065 C 3.14 3.106 3.106 3.14 3.065 3.14 L 2.015 3.14 C 1.975 3.14 1.94 3.106 1.94 3.065 L 1.94 2.015 C 1.94 1.975 1.975 1.94 2.015 1.94 Z"/>
    <path style="fill:#ffffff" d="M 3.815 1.94 L 4.865 1.94 C 4.906 1.94 4.94 1.975 4.94 2.015 L 4.94 3.065 C 4.94 3.106 4.906 3.14 4.865 3.14 L 3.815 3.14 C 3.775 3.14 3.74 3.106 3.74 3.065 L 3.74 2.015 C 3.74 1.975 3.775 1.94 3.815 1.94 Z"/>
    <path style="fill:#ffffff" d="M 2.015 3.74 L 3.065 3.74 C 3.106 3.74 3.14 3.775 3.14 3.815 L 3.14 4.865 C 3.14 4.906 3.106 4.94 3.065 4.94 L 2.015 4.94 C 1.975 4.94 1.94 4.906 1.94 4.865 L 1.94 3.815 C 1.94 3.775 1.975 3.74 2.015 3.74 Z"/>
    <path style="fill:#ffffff" d="M 3.815 3.74 L 4.865 3.74 C 4.906 3.74 4.94 3.775 4.94 3.815 L 4.94 4.865 C 4.94 4.906 4.906 4.94 4.865 4.94 L 3.815 4.94 C 3.775 4.94 3.74 4.906 3.74 4.865 L 3.74 3.815 C 3.74 3.775 3.775 3.74 3.815 3.74 Z"/>
  </g>
</svg>