<?xml version="1.0" encoding="utf-8"?>
<svg width="26" height="26" viewBox="0 0 6.8791667 6.8791667" version="1.1" id="svg1" xmlns="http://www.w3.org/2000/svg">
  <defs id="defs1"/>
  <g id="layer1">
    <circle style="fill:#2e2e2e;fill-opacity:1;stroke:none;stroke-width:0.529165;stroke-linecap:square;stroke-dasharray:none;stroke-opacity:1" id="circle2" cx="3.4395833" cy="3.4395833" r="3.4395833"/>
    <path style="fill:#8e8e8e" d="M 3.19 2.44 C 3.19 2.44 3.19 2.94 3.69 2.94 L 3.815 2.94 C 3.884 2.94 3.94 2.996 3.94 3.065 L 3.94 3.19 C 3.94 3.69 4.44 3.69 4.44 3.69 L 4.44 2.69 C 4.44 2.551 4.328 2.44 4.19 2.44 L 3.19 2.44 Z M 2.44 3.19 L 2.44 4.19 C 2.44 4.328 2.551 4.44 2.69 4.44 L 3.69 4.44 C 3.69 4.44 3.69 3.94 3.19 3.94 L 3.065 3.94 C 2.996 3.94 2.94 3.884 2.94 3.815 L 2.94 3.69 C 2.932 3.224 2.44 3.19 2.44 3.19 Z"/>
  </g>
</svg>