<?xml version="1.0" encoding="utf-8"?>
<svg width="26" height="26" viewBox="0 0 6.8791667 6.8791667" version="1.1" id="svg1" xmlns="http://www.w3.org/2000/svg">
  <defs id="defs1"/>
  <g id="layer1">
    <g id="layer1-3" transform="translate(6.6940846,-1.1185437)"/>
    <g fill="#2e3436" id="g3" transform="matrix(0.26458333,0,0,0.26458333,1.3229167,1.3229167)" style="fill:#edeff1;fill-opacity:1">
      <path style="fill:#ffffff" d="M 10.268 1.954 C 10.268 3.207 9.253 4.222 8 4.222 C 6.75 4.222 5.733 3.207 5.733 1.954 C 5.733 0.704 6.75 -0.313 8 -0.313 C 9.253 -0.313 10.268 0.704 10.268 1.954 Z"/>
      <path style="fill:#ffffff" d="M 10.268 7.999 C 10.268 9.251 9.253 10.266 8 10.266 C 6.75 10.266 5.733 9.251 5.733 7.999 C 5.733 6.746 6.75 5.734 8 5.734 C 9.253 5.734 10.268 6.746 10.268 7.999 Z"/>
      <path style="fill:#ffffff" d="M 10.268 14.045 C 10.268 15.297 9.253 16.313 8 16.313 C 6.75 16.313 5.733 15.297 5.733 14.045 C 5.733 12.795 6.75 11.778 8 11.778 C 9.253 11.778 10.268 12.795 10.268 14.045 Z"/>
    </g>
  </g>
</svg>