<?xml version="1.0" encoding="utf-8"?>
<svg width="26" height="26" viewBox="0 0 6.8791667 6.8791667" version="1.1" id="svg1" xmlns="http://www.w3.org/2000/svg">
  <defs id="defs1"/>
  <g id="layer1">
    <rect style="font-variation-settings:'STYL' 300;fill:#3f3f3f;fill-opacity:1;stroke-width:4" id="rect1" width="6.8791666" height="6.8791666" x="0" y="0" ry="1.7197917"/>
    <path style="fill:#ffffff" d="M 2.69 2.44 C 2.552 2.44 2.44 2.551 2.44 2.69 L 2.44 4.19 C 2.44 4.329 2.552 4.44 2.69 4.44 L 4.19 4.44 C 4.328 4.44 4.44 4.329 4.44 4.19 L 4.44 2.69 C 4.44 2.551 4.328 2.44 4.19 2.44 L 2.69 2.44 Z M 3.065 3.19 L 3.815 3.19 C 3.884 3.19 3.94 3.246 3.94 3.315 L 3.94 3.815 C 3.94 3.884 3.884 3.94 3.815 3.94 L 3.065 3.94 C 2.996 3.94 2.94 3.884 2.94 3.815 L 2.94 3.315 C 2.94 3.246 2.996 3.19 3.065 3.19 Z"/>
  </g>
</svg>