<?xml version="1.0" encoding="UTF-8" standalone="no"?>
<!-- Created with Inkscape (http://www.inkscape.org/) -->

<svg
   width="26"
   height="26"
   viewBox="0 0 6.8791667 6.8791667"
   version="1.1"
   id="svg1"
   xml:space="preserve"
   inkscape:version="1.3.2 (091e20ef0f, 2023-11-25)"
   sodipodi:docname="max-inactive.svg"
   xmlns:inkscape="http://www.inkscape.org/namespaces/inkscape"
   xmlns:sodipodi="http://sodipodi.sourceforge.net/DTD/sodipodi-0.dtd"
   xmlns="http://www.w3.org/2000/svg"
   xmlns:svg="http://www.w3.org/2000/svg"><sodipodi:namedview
     id="namedview1"
     pagecolor="#ffffff"
     bordercolor="#000000"
     borderopacity="0.25"
     inkscape:showpageshadow="2"
     inkscape:pageopacity="0.0"
     inkscape:pagecheckerboard="0"
     inkscape:deskcolor="#d1d1d1"
     inkscape:document-units="mm"
     inkscape:zoom="23.967508"
     inkscape:cx="5.8829646"
     inkscape:cy="17.878371"
     inkscape:window-width="2114"
     inkscape:window-height="1239"
     inkscape:window-x="0"
     inkscape:window-y="0"
     inkscape:window-maximized="0"
     inkscape:current-layer="layer1"
     showgrid="true"><inkscape:grid
       id="grid1"
       units="px"
       originx="0"
       originy="0"
       spacingx="0.26458334"
       spacingy="0.26458334"
       empcolor="#0099e5"
       empopacity="0.30196078"
       color="#0099e5"
       opacity="0.14901961"
       empspacing="5"
       dotted="false"
       gridanglex="30"
       gridanglez="30"
       visible="true" /></sodipodi:namedview><defs
     id="defs1" /><g
     inkscape:label="Layer 1"
     inkscape:groupmode="layer"
     id="layer1"><g
       fill="#2e3436"
       id="g2"
       transform="matrix(0.26458333,0,0,0.26458333,1.3229167,1.3229167)"
       style="fill:#8e8e8e;fill-opacity:1"><path
         d="M 1,9 C 0.449219,9 0,9.449219 0,10 v 6 H 6 C 6.550781,16 7,15.550781 7,15 7,14.449219 6.550781,14 6,14 H 3.414062 l 3.292969,-3.292969 c 0.390625,-0.390625 0.390625,-1.023437 0,-1.414062 C 6.519531,9.105469 6.265625,9 6,9 5.734375,9 5.480469,9.105469 5.292969,9.292969 L 2,12.585938 V 10 C 2,9.449219 1.550781,9 1,9 Z m 0,0"
         id="path1"
         style="fill:#8e8e8e;fill-opacity:1" /><path
         d="m 15,7 c 0.550781,0 1,-0.449219 1,-1 V 0 H 10 C 9.449219,0 9,0.449219 9,1 9,1.550781 9.449219,2 10,2 h 2.585938 L 9.292969,5.292969 c -0.390625,0.390625 -0.390625,1.023437 0,1.414062 C 9.480469,6.894531 9.734375,7 10,7 10.265625,7 10.519531,6.894531 10.707031,6.707031 L 14,3.414062 V 6 c 0,0.550781 0.449219,1 1,1 z m 0,0"
         id="path2"
         style="fill:#8e8e8e;fill-opacity:1" /></g><g
       inkscape:label="Layer 1"
       id="layer1-3"
       transform="translate(-0.8122122,-0.418451)" /></g></svg>
