<?xml version="1.0" encoding="UTF-8" standalone="no"?>
<!-- Created with Inkscape (http://www.inkscape.org/) -->

<svg
   width="26"
   height="26"
   viewBox="0 0 6.8791667 6.8791667"
   version="1.1"
   id="svg1"
   xml:space="preserve"
   inkscape:version="1.3.2 (091e20ef0f, 2023-11-25)"
   sodipodi:docname="max_toggled-inactive.svg"
   xmlns:inkscape="http://www.inkscape.org/namespaces/inkscape"
   xmlns:sodipodi="http://sodipodi.sourceforge.net/DTD/sodipodi-0.dtd"
   xmlns="http://www.w3.org/2000/svg"
   xmlns:svg="http://www.w3.org/2000/svg"><sodipodi:namedview
     id="namedview1"
     pagecolor="#ffffff"
     bordercolor="#000000"
     borderopacity="0.25"
     inkscape:showpageshadow="2"
     inkscape:pageopacity="0.0"
     inkscape:pagecheckerboard="0"
     inkscape:deskcolor="#d1d1d1"
     inkscape:document-units="mm"
     inkscape:zoom="2.1184484"
     inkscape:cx="-42.719945"
     inkscape:cy="97.004959"
     inkscape:window-width="1471"
     inkscape:window-height="1247"
     inkscape:window-x="0"
     inkscape:window-y="0"
     inkscape:window-maximized="0"
     inkscape:current-layer="layer1"
     showgrid="true"><inkscape:grid
       id="grid1"
       units="px"
       originx="0"
       originy="0"
       spacingx="0.26458334"
       spacingy="0.26458334"
       empcolor="#0099e5"
       empopacity="0.30196078"
       color="#0099e5"
       opacity="0.14901961"
       empspacing="5"
       dotted="false"
       gridanglex="30"
       gridanglez="30"
       visible="true" /></sodipodi:namedview><defs
     id="defs1" /><g
     inkscape:label="Layer 1"
     inkscape:groupmode="layer"
     id="layer1"><g
       fill="#2e3436"
       id="g2"
       transform="matrix(0.26458333,0,0,0.26458333,1.3229167,1.3229167)"
       style="fill:#8e8e8e;fill-opacity:1"><path
         d="M 2,8 C 1.449219,8 1,8.449219 1,9 c 0,0.550781 0.449219,1 1,1 h 2.585938 l -3.292969,3.292969 c -0.390625,0.390625 -0.390625,1.023437 0,1.414062 0.390625,0.390625 1.023437,0.390625 1.414062,0 L 6,11.414062 V 14 c 0,0.550781 0.449219,1 1,1 0.550781,0 1,-0.449219 1,-1 V 8 Z m 0,0"
         id="path1"
         style="fill:#8e8e8e;fill-opacity:1" /><path
         d="M 14,8 C 14.550781,8 15,7.550781 15,7 15,6.449219 14.550781,6 14,6 h -2.585938 l 3.292969,-3.292969 c 0.390625,-0.390625 0.390625,-1.023437 0,-1.414062 -0.390625,-0.390625 -1.023437,-0.390625 -1.414062,0 L 10,4.585938 V 2 C 10,1.449219 9.550781,1 9,1 8.449219,1 8,1.449219 8,2 v 6 z m 0,0"
         id="path2"
         style="fill:#8e8e8e;fill-opacity:1" /></g></g></svg>
