#define menu_width 10
#define menu_height 10
static unsigned char menu_bits[] = {
   0x00, 0x00, 0x00, 0x00, 0x02, 0x01, 0x87, 0x03, 0xce, 0x01, 0xfc, 0x00,
   0x78, 0x00, 0x30, 0x00, 0x00, 0x00, 0x00, 0x00 };
